<?xml version="1.0" encoding="UTF-8" standalone="no"?>
<svg
   xmlns:dc="http://purl.org/dc/elements/1.1/"
   xmlns:cc="http://creativecommons.org/ns#"
   xmlns:rdf="http://www.w3.org/1999/02/22-rdf-syntax-ns#"
   xmlns:svg="http://www.w3.org/2000/svg"
   xmlns="http://www.w3.org/2000/svg"
   width="256.69876mm"
   height="202.05486mm"
   viewBox="0 0 256.69877 202.05485"
   version="1.1"
   id="svg8">
  <defs
     id="defs2" />
  <metadata
     id="metadata5">
    <rdf:RDF>
      <cc:Work
         rdf:about="">
        <dc:format>image/svg+xml</dc:format>
        <dc:type
           rdf:resource="http://purl.org/dc/dcmitype/StillImage" />
        <dc:title></dc:title>
      </cc:Work>
    </rdf:RDF>
  </metadata>
  <g
     id="layer1"
     transform="translate(-30.80506,-170.17906)">
    <g
       id="g873"
       transform="matrix(0.65786455,0,0,0.65786455,-5.3774903,103.22958)"
       style="stroke-width:0.402185">
      <g
         id="g841"
         style="fill:#cb2026;fill-opacity:1;stroke-width:0.402185">
	<path
   class="st1"
   d="m 145.2,154.7 h 28.9 v -21.6 h -29.3 c -21.3,0 -41,11.4 -51.7,29.8 -10.7,18.5 -10.7,41.2 0,59.7 10.7,18.5 30.3,29.8 51.7,29.8 h 56.1 c 3.1,-0.2 5.5,-2.6 5.7,-5.7 V 135.6 c 0.1,-5.9 3.9,-11 9.5,-12.7 6.5,-1.5 13.2,1.7 16.1,7.7 l 34.8,60.3 33.9,58.3 c 1.8,3 4.2,4.5 6.5,3.8 2,-0.6 3.3,-2.4 3.1,-4.5 V 135.6 c 0.1,-5.9 3.9,-11 9.5,-12.7 6.6,-1.8 13.5,1.5 16.1,7.7 l 32.4,55.9 36.5,62.8 c 1.8,3 4.2,4.5 6.5,3.8 2,-0.6 3.3,-2.4 3.1,-4.5 V 102.9 H 393 v 86.9 l -37.8,-65.1 c -22.9,-38.9 -66.3,-22.9 -66.3,10.7 v 54.2 l -37.8,-65.1 c -22.9,-38.9 -66.3,-22.9 -66.3,10.7 v 89.2 c 0,1.6 -0.6,3.1 -1.7,4.3 -1.1,1.2 -2.6,1.8 -4.2,1.8 h -34 C 124,230.4 107,213.6 106.8,192.7 c 0.2,-21 17.3,-38 38.4,-38 z"
   id="path837"
   style="fill:#cb2026;fill-opacity:1;stroke-width:0.402185" />

	<path
   class="st1"
   d="m 423.5,102.9 v 146.4 c 0,7.1 -5.4,13 -12.5,13.6 -5.5,-0.1 -10.4,-3.3 -12.9,-8.1 L 361.7,192 329,135.6 c -1.8,-3 -4.2,-4.5 -6.4,-3.8 -2,0.6 -3.3,2.4 -3.1,4.5 v 112.9 c -0.1,5.9 -3.9,11 -9.5,12.7 -6.5,1.5 -13.2,-1.7 -16.1,-7.7 L 260,195.9 224.9,135.6 c -1.8,-3 -4.2,-4.5 -6.5,-3.8 -2,0.6 -3.3,2.4 -3.1,4.5 v 110.5 c -0.2,7.8 -6.5,14 -14.2,14.2 h -56.3 c -37.7,0 -68.3,-30.6 -68.3,-68.3 0,-37.7 30.6,-68.3 68.3,-68.3 h 29.1 V 103 h -29 C 95.3,103 55,143.2 55,192.9 c 0,49.6 40.2,89.9 89.9,89.9 h 56.7 c 9.7,0.9 19.3,-2.7 26.2,-9.6 6.8,-7 10.2,-16.6 9.2,-26.3 v -51.2 l 37.8,65.1 c 22.9,38.9 66.3,22.9 66.3,-10.7 v -54.2 l 37.8,65.1 c 22.9,38.9 66.3,22.9 66.3,-10.7 V 102.9 Z"
   id="path839"
   style="fill:#cb2026;fill-opacity:1;stroke-width:0.402185" />

</g>
      <g
         id="g853"
         style="fill:#cb2026;fill-opacity:1;stroke-width:0.402185">
	<path
   class="st1"
   d="m 115.8,342.1 c 3.1,-2.1 6.7,-3.2 10.4,-3.1 4.3,-0.2 8.5,1.2 11.8,3.9 2.9,2.5 4.8,5.9 5.4,9.6 h 19.3 c -0.7,-11.2 -7.7,-21 -18,-25.4 -5.7,-2.6 -11.9,-3.9 -18.2,-3.8 -7.2,-0.1 -14.2,1.7 -20.5,5.2 -5.9,3.5 -10.6,8.6 -13.6,14.8 -3.5,7.1 -5.2,14.9 -5,22.8 -0.2,7.9 1.4,15.7 4.7,22.8 2.9,6.2 7.7,11.3 13.6,14.8 6.1,3.4 12.9,5.2 19.9,5.2 6.3,0.1 12.6,-1.2 18.3,-3.8 5.4,-2.3 10.1,-6.1 13.6,-11 3.3,-4.8 5,-10.5 5.2,-16.3 h -19.1 c -0.3,4.3 -2.2,8.4 -5.4,11.4 -3.5,2.7 -7.9,4.1 -12.3,3.8 -3.6,0.1 -7.2,-1 -10.2,-3.1 -3.1,-2.4 -5.4,-5.6 -6.6,-9.2 -3.1,-9.5 -3.1,-19.8 0,-29.3 1.2,-3.8 3.6,-7 6.7,-9.3 z"
   id="path843"
   style="fill:#cb2026;fill-opacity:1;stroke-width:0.402185" />

	<polygon
   class="st1"
   points="240.9,325.4 221.9,325.4 221.9,356.8 190.6,356.8 190.6,325.4 171.6,325.4 171.5,406.7 190.5,406.7 190.5,372.4 221.9,372.4 221.9,406.7 240.9,406.7 "
   id="polygon845"
   style="fill:#cb2026;fill-opacity:1;stroke-width:0.402185" />

	<rect
   x="253.89999"
   y="325.39999"
   class="st1"
   width="19.1"
   height="81.300003"
   id="rect847"
   style="fill:#cb2026;fill-opacity:1;stroke-width:0.402185" />

	<polygon
   class="st1"
   points="343.4,391.4 305.5,391.4 305.5,325.4 286.3,325.4 286.5,406.7 343.4,406.7 "
   id="polygon849"
   style="fill:#cb2026;fill-opacity:1;stroke-width:0.402185" />

	<polygon
   class="st1"
   points="412.1,406.7 412.1,391.9 371.5,391.9 371.5,372.2 407.8,372.2 407.8,357.1 370.7,357.1 370.7,340.3 411.3,340.3 411.3,325.4 352.5,325.4 352.5,406.7 "
   id="polygon851"
   style="fill:#cb2026;fill-opacity:1;stroke-width:0.402185" />

</g>
    </g>
  </g>
  <style
     type="text/css"
     id="style833">
	.st0{fill:#CB2026;}
	.st1{fill:#FFFFFF;}
</style>
</svg>
