<svg xmlns="http://www.w3.org/2000/svg" height="1000" width="881.7531128">
<path transform="matrix(20.68337884,0,0,20.68337884,-60.64366676,-1.633986928)" d="m 5.215,29.354 c 0,-4.392 2.059,-6.061 2.481,-10.223 -0.579,3.646 -2.995,6.635 -2.995,10.223 0,1.379 0.191,2.637 0.534,3.779 1.519,5.051 6.036,7.861 10.411,8.97 -6.739,-1.704 -10.431,-7.36 -10.431,-12.749 z m 37.223,-5.759 c -0.819,-1.987 -1.716,-3.782 -1.716,-5.989 0,5.344 2.556,6.856 2.556,11.748 0,5.389 -3.692,11.045 -10.43,12.749 6.077,-1.537 10.908,-5.987 10.908,-12.749 10e-4,-2.292 -0.631,-4.093 -1.318,-5.759 z" style="fill:white" />
<path transform="matrix(20.68337884,0,0,20.68337884,-60.64366676,-1.633986928)" d="m 41.528,8.053 c -1.378,-0.406 -2.383,-1.448 -2.984,-3.095 l -1.397,-3.823 -0.648,2.419 c 1.325,5.941 6.212,6.367 6.212,6.367 l 1.984,-0.933 z m -23.066,21.637 -2.558,-3.919 -2.841,2.134 c 0,0 0.995,0.028 0.995,1.07 v 7.379 l 2.005,-1.506 v -5.217 l 2.285,3.5 2.118,-1.59 v -9.195 l -2.004,1.505 z m 8.128,-8.546 -2.262,1.698 v -3.398 l -3.054,2.294 c 0,0 0.994,0.028 0.994,1.071 v 7.378 l 2.06,-1.547 v -3.363 l 2.262,-1.698 v 3.363 l 1.961,-1.473 v -9.196 l -1.961,1.474 z m 5.732,-0.854 v -6.848 l -3.055,2.294 c 0,0 0.994,0.028 0.994,1.069 v 7.379 l 5.687,-4.271 c -0.122,-1.471 0,-2.346 0,-2.346 z" style="fill:#cfd2d3" />
<linearGradient gradientTransform="matrix(0.2752,0,0,0.2752,-3398.152,-2990.44)" y2="10944.5752" x2="12378.87109" y1="10944.5752" x1="12360.24512" gradientUnits="userSpaceOnUse" id="a">
<stop stop-color="#fff" offset=".112" />
<stop stop-color="#dddfe1" offset=".235" />
<stop stop-color="#a8afb3" offset=".439" />
<stop stop-color="#949ca1" offset=".539" />
</linearGradient>
<path transform="matrix(20.68337884,0,0,20.68337884,-60.64366676,-1.633986928)" style="fill:url(#a)" fill="url(#a)" d="m 6.337,17.616 c 0,5.221 -2.56,6.258 -2.56,11.738 0,1.671 0.284,3.234 0.794,4.672 0.159,-0.329 0.396,-0.648 0.664,-0.893 a 13.043,13.043 0 0 1 -0.534,-3.779 c 0,-3.588 2.417,-6.577 2.995,-10.223 0.047,-0.474 0.076,-0.979 0.076,-1.525 0,-4.166 -1.989,-7.685 -1.989,-7.685 l -1.984,-0.934 1.346,3.057 a 13.827,13.827 0 0 1 1.192,5.572 z" />
<linearGradient y2="8.987000465" x2="42.70899963" y1="23.59499931" x1="42.70899963" gradientUnits="userSpaceOnUse" id="b">
<stop stop-color="#fff" offset="0" />
<stop stop-color="#fff" offset=".348" />
<stop stop-color="#949ca1" offset=".562" />
<stop stop-color="#949ca1" offset="1" />
</linearGradient>
<path transform="matrix(20.68337884,0,0,20.68337884,-60.64366676,-1.633986928)" style="fill:url(#b)" fill="url(#b)" d="m 40.722,17.606 c 0,2.207 0.897,4.002 1.716,5.989 l 1.068,-0.034 c -0.662,-1.658 -1.35,-3.239 -1.35,-5.945 0,-2.139 0.514,-4.032 1.192,-5.571 l 1.346,-3.057 -1.984,0.933 c 10e-4,0 -1.988,3.519 -1.988,7.685 z" />
<linearGradient y2="40.31700134" x2="24.24699974" y1="40.31700134" x1="4.571000099" gradientUnits="userSpaceOnUse" id="c">
<stop stop-color="#fff" offset=".152" />
<stop stop-color="#fafafa" offset=".212" />
<stop stop-color="#ebeced" offset=".286" />
<stop stop-color="#d2d5d7" offset=".368" />
<stop stop-color="#afb5b9" offset=".455" />
<stop stop-color="#949ca1" offset=".511" />
</linearGradient>
<path transform="matrix(20.68337884,0,0,20.68337884,-60.64366676,-1.633986928)" style="fill:url(#c)" fill="url(#c)" d="m 22.684,43.705 c -1.626,-0.586 -3.837,-0.792 -7.039,-1.602 -4.375,-1.109 -8.892,-3.919 -10.411,-8.97 a 3.026,3.026 0 0 0 -0.664,0.893 c 1.726,4.872 6.046,8.29 10.717,9.491 2.989,0.755 4.382,0.83 6.61,1.453 0.29,0.306 2.349,2.531 2.349,2.531 v -2.132 c 0.001,0 -1.353,-1.468 -1.562,-1.664 z" />
<linearGradient y2="6.006999969" x2="12.59300041" y1="39.32300186" x1="35.92100143" gradientUnits="userSpaceOnUse" id="d">
<stop stop-color="#949ca1" offset="0" />
<stop stop-color="#99a1a5" offset=".012" />
<stop stop-color="#c2c6c8" offset=".118" />
<stop stop-color="#dbddde" offset=".202" />
<stop stop-color="#e4e5e6" offset=".253" />
<stop stop-color="#e4e5e6" offset=".753" />
<stop stop-color="#dcdedf" offset=".801" />
<stop stop-color="#c6cacc" offset=".875" />
<stop stop-color="#a3aaae" offset=".966" />
<stop stop-color="#949ca1" offset="1" />
</linearGradient>
<path transform="matrix(20.68337884,0,0,20.68337884,-60.64366676,-1.633986928)" style="fill:url(#d)" fill="url(#d)" d="m 16.004,40.689 c 3.564,0.904 5.893,1.007 7.459,1.762 0,0 0.569,0.521 0.784,0.761 0.216,-0.239 0.785,-0.761 0.785,-0.761 1.564,-0.755 3.894,-0.858 7.458,-1.762 4.499,-1.142 9.352,-5.106 9.352,-11.335 0,-4.455 -2.557,-6.09 -2.557,-11.748 0,-3.813 1.442,-6.752 1.442,-6.752 0,0 -3.326,-0.672 -4.876,-4.882 0,0 -2.208,2.06 -5.253,2.06 -3.816,0 -6.35,-2.68 -6.35,-2.68 0,0 -2.534,2.68 -6.349,2.68 -3.047,0 -5.254,-2.06 -5.254,-2.06 -1.549,4.21 -4.876,4.882 -4.876,4.882 0,0 1.442,2.939 1.442,6.752 0,5.658 -2.558,7.293 -2.558,11.748 -10e-4,6.229 4.853,10.193 9.351,11.335 z m 24.205,-11.335 c 0,5.284 -4.211,8.757 -8.122,9.752 -2.823,0.718 -6.275,1.088 -7.318,1.682 -0.235,0.172 -0.522,0.478 -0.522,0.478 0,0 -0.287,-0.306 -0.522,-0.478 -1.043,-0.594 -4.496,-0.964 -7.318,-1.682 a 9.497,9.497 0 0 1 -0.32,-0.087 l 22.209,-16.678 c 0.758,2.646 1.913,4.379 1.913,7.013 z m -1.582,-17.609 c -0.452,1.352 -0.976,3.441 -0.976,5.861 0,1.004 0.073,1.893 0.197,2.697 l -23.828,17.893 c -2.986,-1.533 -5.598,-4.479 -5.729,-8.524 l 27.385,-20.564 a 8.93,8.93 0 0 0 2.951,2.637 z m -27.784,5.861 c 0,-2.42 -0.526,-4.509 -0.976,-5.861 1.05,-0.576 2.368,-1.595 3.42,-3.348 1.129,0.632 2.73,1.269 4.612,1.269 2.849,0 5.076,-1.244 6.349,-2.18 1.274,0.935 3.5,2.18 6.35,2.18 0.454,0 0.893,-0.038 1.312,-0.103 l -23.33,17.52 c 0.672,-2.637 2.263,-4.82 2.263,-9.477 z" />
<linearGradient y2="3.852999926" x2="24.24699974" y1="3.852999926" x1="11.34700012" gradientUnits="userSpaceOnUse" id="e">
<stop stop-color="#fff" offset=".247" />
<stop stop-color="#fafafa" offset=".338" />
<stop stop-color="#ebeced" offset=".449" />
<stop stop-color="#d2d5d7" offset=".572" />
<stop stop-color="#afb5b9" offset=".702" />
<stop stop-color="#949ca1" offset=".786" />
</linearGradient>
<path transform="matrix(20.68337884,0,0,20.68337884,-60.64366676,-1.633986928)" style="fill:url(#e)" fill="url(#e)" d="m 17.898,6.572 c 3.83,0 6.349,-3.255 6.349,-3.255 v -2.036 l -2.005,1.983 c -1.03,1.019 -2.679,1.851 -4.344,1.851 -1.244,0 -2.415,-0.554 -3.438,-1.403 l -3.113,-2.577 0.648,2.419 c 0,-10e-4 2.931,3.018 5.903,3.018 z" />
<linearGradient y2="35.52999878" x2="44.71699905" y1="35.52999878" x1="24.24699974" gradientUnits="userSpaceOnUse" id="f">
<stop stop-color="#fff" offset=".197" />
<stop stop-color="#fafbfb" offset=".328" />
<stop stop-color="#edeeef" offset=".475" />
<stop stop-color="#d7dadc" offset=".628" />
<stop stop-color="#b8bdc0" offset=".786" />
<stop stop-color="#949ca1" offset=".933" />
</linearGradient>
<path transform="matrix(20.68337884,0,0,20.68337884,-60.64366676,-1.633986928)" style="fill:url(#f)" fill="url(#f)" d="m 43.757,29.354 c 0,6.762 -4.831,11.212 -10.908,12.749 -3.201,0.81 -5.411,1.016 -7.039,1.602 -0.209,0.196 -1.562,1.664 -1.562,1.664 v 2.131 c 0,0 2.059,-2.225 2.35,-2.531 2.228,-0.623 3.62,-0.697 6.611,-1.453 6.047,-1.557 11.509,-6.827 11.509,-14.163 0,-2.641 -0.596,-4.25 -1.211,-5.793 l -1.068,0.034 c 0.686,1.667 1.318,3.468 1.318,5.76 z" />
<linearGradient y2="3.852999926" x2="37.14699936" y1="3.852999926" x1="24.24699974" gradientUnits="userSpaceOnUse" id="g">
<stop stop-color="#fff" offset=".247" />
<stop stop-color="#fafafa" offset=".338" />
<stop stop-color="#ebeced" offset=".449" />
<stop stop-color="#d2d5d7" offset=".572" />
<stop stop-color="#afb5b9" offset=".702" />
<stop stop-color="#949ca1" offset=".786" />
</linearGradient>
<path transform="matrix(20.68337884,0,0,20.68337884,-60.64366676,-1.633986928)" style="fill:url(#g)" fill="url(#g)" d="m 30.597,6.572 c 2.971,0 5.902,-3.018 5.902,-3.018 l 0.648,-2.419 -3.113,2.577 c -1.024,0.848 -2.194,1.403 -3.437,1.403 -1.667,0 -3.315,-0.832 -4.346,-1.851 l -2.005,-1.983 v 2.036 c 0.001,0 2.522,3.255 6.351,3.255 z" />
<linearGradient y2="5.527999878" x2="11.99499989" y1="5.527999878" x1="3.799000025" gradientUnits="userSpaceOnUse" id="h">
<stop stop-color="#fff" offset=".388" />
<stop stop-color="#fafafa" offset=".468" />
<stop stop-color="#ebeced" offset=".567" />
<stop stop-color="#d2d5d7" offset=".675" />
<stop stop-color="#afb5b9" offset=".79" />
<stop stop-color="#949ca1" offset=".865" />
</linearGradient>
<path transform="matrix(20.68337884,0,0,20.68337884,-60.64366676,-1.633986928)" style="fill:url(#h)" fill="url(#h)" d="m 11.995,3.553 -0.648,-2.419 -1.397,3.824 c -0.601,1.647 -1.605,2.689 -2.983,3.095 l -3.168,0.934 1.985,0.933 c -10e-4,10e-4 4.887,-0.426 6.211,-6.367 z" />
<path transform="matrix(20.68337884,0,0,20.68337884,-60.64366676,-1.633986928)" d="m 5.706,17.616 c 0,5.021 -2.56,6.163 -2.56,11.738 0,8.033 6.211,13.289 11.983,14.774 2.916,0.71 3.797,0.758 6.431,1.406 0.216,0.231 2.687,2.893 2.687,2.893 l 2.687,-2.893 c 2.633,-0.648 3.514,-0.696 6.431,-1.406 5.771,-1.485 11.984,-6.741 11.984,-14.774 0,-5.575 -2.561,-6.718 -2.561,-11.738 0,-1.813 0.383,-3.602 1.139,-5.317 l 1.636,-3.714 -3.856,-1.136 c -1.176,-0.348 -2.04,-1.259 -2.57,-2.707 l -1.704,-4.663 -3.801,3.147 c -1.007,0.835 -2.028,1.258 -3.034,1.258 -1.346,0 -2.878,-0.654 -3.902,-1.668 l -2.448,-2.422 -2.448,2.422 c -1.024,1.014 -2.556,1.668 -3.901,1.668 -1.007,0 -2.028,-0.423 -3.036,-1.258 l -3.801,-3.147 -1.704,4.663 c -0.529,1.448 -1.394,2.359 -2.571,2.706 l -3.855,1.137 1.636,3.714 a 13.122,13.122 0 0 1 1.138,5.317 z m 1.261,-9.563 c 1.378,-0.406 2.382,-1.448 2.983,-3.095 l 1.397,-3.823 3.113,2.577 c 1.023,0.848 2.194,1.403 3.438,1.403 1.665,0 3.314,-0.832 4.344,-1.851 l 2.005,-1.983 2.005,1.983 c 1.03,1.019 2.679,1.851 4.346,1.851 1.243,0 2.413,-0.554 3.437,-1.403 l 3.113,-2.577 1.397,3.823 c 0.602,1.647 1.606,2.689 2.984,3.095 l 3.167,0.935 -1.346,3.057 a 13.826,13.826 0 0 0 -1.192,5.571 c 0,2.706 0.688,4.287 1.35,5.945 0.615,1.543 1.211,3.153 1.211,5.793 0,7.337 -5.463,12.607 -11.509,14.163 -2.991,0.755 -4.383,0.83 -6.611,1.453 -0.29,0.306 -2.35,2.531 -2.35,2.531 0,0 -2.059,-2.225 -2.349,-2.531 -2.228,-0.623 -3.621,-0.697 -6.61,-1.453 -4.671,-1.202 -8.991,-4.619 -10.717,-9.491 a 13.91,13.91 0 0 1 -0.794,-4.672 c 0,-5.48 2.56,-6.517 2.56,-11.738 0,-2.139 -0.514,-4.032 -1.192,-5.571 l -1.348,-3.058 z" />
<path transform="matrix(20.68337884,0,0,20.68337884,-60.64366676,-1.633986928)" d="m 16.087,39.019 c 0.107,0.031 0.213,0.06 0.32,0.087 2.822,0.718 6.274,1.088 7.318,1.682 0.235,0.172 0.522,0.478 0.522,0.478 0,0 0.287,-0.306 0.522,-0.478 1.043,-0.594 4.495,-0.964 7.318,-1.682 3.911,-0.994 8.122,-4.467 8.122,-9.752 0,-2.633 -1.155,-4.366 -1.913,-7.013 z m -7.508,-11.937 23.33,-17.52 a 8.548,8.548 0 0 1 -1.312,0.103 c -2.851,0 -5.077,-1.244 -6.35,-2.18 -1.273,0.935 -3.5,2.18 -6.349,2.18 -1.881,0 -3.483,-0.637 -4.612,-1.269 -1.052,1.753 -2.369,2.772 -3.42,3.348 0.451,1.352 0.976,3.441 0.976,5.861 10e-4,4.658 -1.59,6.841 -2.263,9.477 z m 5.441,11.114 23.829,-17.893 a 17.61,17.61 0 0 1 -0.197,-2.697 c 0,-2.42 0.524,-4.509 0.976,-5.861 a 8.953,8.953 0 0 1 -2.952,-2.637 l -27.385,20.565 c 0.131,4.044 2.744,6.99 5.729,8.523 z m 18.302,-24.754 v 6.848 l 3.626,-2.723 c 0,0 -0.122,0.875 0,2.346 l -5.687,4.271 v -7.379 c 0,-1.042 -0.994,-1.069 -0.994,-1.069 z m -7.994,6.002 v 3.398 l 2.262,-1.698 v -3.397 l 1.961,-1.474 v 9.196 l -1.961,1.473 v -3.363 l -2.262,1.698 v 3.363 l -2.06,1.547 v -7.378 c 0,-1.043 -0.994,-1.071 -0.994,-1.071 z m -8.425,6.327 2.558,3.919 v -5.84 l 2.004,-1.505 v 9.195 l -2.118,1.59 -2.285,-3.5 v 5.217 l -2.005,1.506 v -7.379 c 0,-1.042 -0.995,-1.07 -0.995,-1.07 z" />
<path transform="matrix(20.68337884,0,0,20.68337884,-60.64366676,-1.633986928)" d="m 7.696,19.131 c -0.422,4.162 -2.481,5.831 -2.481,10.223 0,5.389 3.692,11.045 10.431,12.749 3.202,0.81 5.412,1.016 7.039,1.602 0.209,0.196 1.563,1.664 1.563,1.664 0,0 1.353,-1.468 1.562,-1.664 1.628,-0.586 3.838,-0.792 7.039,-1.602 6.739,-1.704 10.43,-7.36 10.43,-12.749 0,-4.892 -2.556,-6.404 -2.556,-11.748 0,-4.166 1.988,-7.685 1.988,-7.685 0,0 -4.887,-0.427 -6.212,-6.367 0,0 -2.931,3.018 -5.902,3.018 -3.83,0 -6.35,-3.255 -6.35,-3.255 0,0 -2.519,3.255 -6.349,3.255 -2.972,0 -5.903,-3.018 -5.903,-3.018 -1.324,5.941 -6.212,6.367 -6.212,6.367 0,0 1.989,3.519 1.989,7.685 0,0.546 -0.028,1.051 -0.076,1.525 z m 0.072,-8.277 c 0,0 3.327,-0.672 4.876,-4.882 0,0 2.208,2.06 5.254,2.06 3.815,0 6.349,-2.68 6.349,-2.68 0,0 2.534,2.68 6.35,2.68 3.045,0 5.253,-2.06 5.253,-2.06 1.55,4.21 4.876,4.882 4.876,4.882 0,0 -1.442,2.939 -1.442,6.752 0,5.658 2.557,7.293 2.557,11.748 0,6.229 -4.852,10.193 -9.352,11.335 -3.564,0.904 -5.894,1.007 -7.458,1.762 0,0 -0.569,0.521 -0.785,0.761 -0.215,-0.239 -0.784,-0.761 -0.784,-0.761 -1.566,-0.755 -3.895,-0.858 -7.459,-1.762 -4.499,-1.142 -9.352,-5.106 -9.352,-11.335 0,-4.455 2.558,-6.09 2.558,-11.748 0.001,-3.813 -1.441,-6.752 -1.441,-6.752 z" />
</svg>
