<svg width="144" height="46" viewBox="0 0 144 46" fill="none" xmlns="http://www.w3.org/2000/svg">
<g id="Logo" clip-path="url(#clip0_2105_965)">
<path id="Vector" d="M74.1071 16.2781H67.3384V32.8425H70.983V27.8728H73.7516C77.468 27.8728 80.4484 25.8835 80.4484 22.0521V22.0054C80.4484 18.6229 78.0569 16.2781 74.1071 16.2781ZM76.7571 22.1239C76.7571 23.5423 75.6906 24.6052 73.8701 24.6052H70.983V19.5493H73.7982C75.6224 19.5493 76.7571 20.4434 76.7571 22.0772V22.1239Z" fill="#101E28"/>
<path id="Vector_2" d="M111.308 26.9282C113.416 26.1454 114.859 24.4685 114.859 21.7934V21.7467C114.859 18.339 112.518 16.2815 108.611 16.2815H101.038V32.8459H104.683V27.5459H107.545L110.564 32.0523C110.895 32.5479 111.455 32.8459 112.051 32.8459H115.355L111.308 26.9282ZM111.164 21.9837C111.164 23.3805 110.148 24.2746 108.371 24.2746H104.679V19.5527H108.299C110.073 19.5527 111.161 20.375 111.161 21.937V21.9837H111.164Z" fill="#101E28"/>
<path id="Vector_3" d="M116.231 16.2781V19.5493H121.272V32.8425H124.917V19.5493H128.766C129.424 19.5493 129.959 19.0143 129.959 18.3572V16.2781H116.235H116.231Z" fill="#101E28"/>
<path id="Vector_4" d="M138.386 22.9319C135.528 22.1994 134.817 21.8439 134.817 20.7594V20.7128C134.817 19.9084 135.549 19.2729 136.942 19.2729C138.041 19.2729 139.169 19.6535 140.318 20.3142C140.856 20.623 141.542 20.4722 141.894 19.9623L143.137 18.1633C141.46 16.8167 139.402 16.0591 136.993 16.0591C133.614 16.0591 131.204 18.0448 131.204 21.0467V21.0934C131.204 24.379 133.355 25.2982 136.688 26.1493C139.452 26.8566 140.02 27.3306 140.02 28.2535V28.3001C140.02 29.2697 139.122 29.8586 137.632 29.8586C136.142 29.8586 134.792 29.3487 133.56 28.5048C133.05 28.1565 132.361 28.2427 131.966 28.7167L130.54 30.4223C132.526 32.1962 135.054 33.0687 137.56 33.0687C141.129 33.0687 143.632 31.2267 143.632 27.9411V27.8944C143.632 25.011 141.743 23.8045 138.386 22.9319Z" fill="#101E28"/>
<path id="Vector_5" d="M59.32 22.9319C56.4617 22.1994 55.7508 21.8439 55.7508 20.7594V20.7128C55.7508 19.9084 56.4833 19.2729 57.8765 19.2729C58.9753 19.2729 60.1028 19.6535 61.2519 20.3142C61.7905 20.623 62.4764 20.4722 62.8283 19.9623L64.0707 18.1633C62.3938 16.8167 60.3362 16.0591 57.9268 16.0591C54.5479 16.0591 52.1384 18.0448 52.1384 21.0467V21.0934C52.1384 24.379 54.2893 25.2982 57.6216 26.1493C60.3865 26.8566 60.9539 27.3306 60.9539 28.2535V28.3001C60.9539 29.2697 60.0562 29.8586 58.566 29.8586C57.0758 29.8586 55.7256 29.3487 54.494 28.5048C53.9841 28.1565 53.2947 28.2427 52.8997 28.7167L51.4741 30.4223C53.4598 32.1962 55.9878 33.0687 58.4941 33.0687C62.0634 33.0687 64.5662 31.2267 64.5662 27.9411V27.8944C64.5662 25.011 62.6738 23.8045 59.32 22.9319Z" fill="#101E28"/>
<path id="Vector_6" d="M90.1653 16.0554C85.4649 16.0554 81.6587 19.8653 81.6587 24.562C81.6587 29.2588 85.4685 33.0687 90.1653 33.0687C94.8621 33.0687 98.6719 29.2588 98.6719 24.562C98.6719 19.8653 94.8621 16.0554 90.1653 16.0554ZM90.1653 29.6287C87.3681 29.6287 85.0987 27.3593 85.0987 24.562C85.0987 21.7648 87.3681 19.4954 90.1653 19.4954C92.9626 19.4954 95.2319 21.7648 95.2319 24.562C95.2319 27.3593 92.9626 29.6287 90.1653 29.6287Z" fill="#101E28"/>
<path id="Vector_7" d="M1.02338 16.278C3.87807 7.13581 12.4134 0.5 22.5 0.5C32.5866 0.5 41.1219 7.13581 43.9766 16.278H25.922V24.6015H25.7676L21.2109 17.5097C20.6579 16.594 20.1013 16.2816 18.9918 16.2816H1.02338V16.278ZM39.7969 19.5492V32.8424H35.3156V19.5492H30.1915V32.8424H27.2004C26.0908 32.8424 25.563 32.53 24.9812 31.6143L19.1821 22.9318H19.0887V32.8424H14.7331V19.5492H9.62696V32.8424H5.06663V19.5492H0.262129C0.0897702 20.6732 0 21.8258 0 23C0 35.4278 10.0722 45.5 22.5 45.5C34.9278 45.5 45 35.4278 45 23C45 21.8258 44.9102 20.6732 44.7379 19.5492H39.7969Z" fill="#FF28FF"/>
</g>
<defs>
<clipPath id="clip0_2105_965">
<rect width="143.632" height="45" fill="white" transform="translate(0 0.5)"/>
</clipPath>
</defs>
</svg>
