<svg version="1.1" id="Capa_1" xmlns="http://www.w3.org/2000/svg" xmlns:xlink="http://www.w3.org/1999/xlink" x="0px" y="0px"
	 viewBox="0 0 287.3 100.5" style="enable-background:new 0 0 287.3 100.5;" xml:space="preserve">
<style type="text/css">
	st0{fill:#FFFFFF;}
</style>
<g>
	<g>
		<path class="st0" d="M147.9,10H135v31.5h6.9v-9.4h5.3c7.1,0,12.7-3.8,12.7-11.1v-0.1C159.9,14.5,155.4,10,147.9,10 M152.9,21.1
			c0,2.7-2,4.7-5.5,4.7h-5.5v-9.6h5.4C150.7,16.2,152.9,17.9,152.9,21.1L152.9,21.1z M225.3,20.5L225.3,20.5
			c0-6.6-4.5-10.5-11.9-10.5H199v31.5h6.9V31.4h5.4l5.7,8.6c0.6,0.9,1.7,1.5,2.8,1.5h6.3l-7.7-11.2
			C222.5,28.8,225.3,25.6,225.3,20.5 M218.3,20.9c0,2.7-1.9,4.4-5.3,4.4h-7v-9h6.9C216.2,16.2,218.3,17.8,218.3,20.9L218.3,20.9z
			 M227.9,16.2h9.6v25.3h6.9V16.2h7.3c1.3,0,2.3-1,2.3-2.3V10h-26.1V16.2z M270,22.7c-5.4-1.4-6.8-2.1-6.8-4.1v-0.1
			c0-1.5,1.4-2.7,4-2.7c2.1,0,4.2,0.7,6.4,2c1,0.6,2.3,0.3,3-0.7l2.4-3.4c-3.2-2.6-7.1-4-11.7-4c-6.4,0-11,3.8-11,9.5v0.1
			c0,6.2,4.1,8,10.4,9.6c5.3,1.3,6.3,2.2,6.3,4v0.1c0,1.8-1.7,3-4.5,3c-2.9,0-5.4-1-7.7-2.6c-1-0.7-2.3-0.5-3,0.4l-2.7,3.2
			c3.8,3.4,8.6,5,13.3,5c6.8,0,11.5-3.5,11.5-9.7v-0.1C280,26.6,276.4,24.3,270,22.7 M119.8,22.7c-5.4-1.4-6.8-2.1-6.8-4.1v-0.1
			c0-1.5,1.4-2.7,4-2.7c2.1,0,4.2,0.7,6.4,2c1,0.6,2.3,0.3,3-0.7l2.4-3.4c-3.2-2.6-7.1-4-11.7-4c-6.4,0-11,3.8-11,9.5v0.1
			c0,6.2,4.1,8,10.4,9.6c5.3,1.3,6.3,2.2,6.3,4v0.1c0,1.8-1.7,3-4.5,3c-2.9,0-5.4-1-7.7-2.6c-1-0.7-2.3-0.5-3,0.4l-2.7,3.2
			c3.8,3.4,8.6,5,13.3,5c6.8,0,11.5-3.5,11.5-9.7v-0.1C129.7,26.6,126.1,24.3,119.8,22.7 M178.4,9.6c-8.9,0-16.2,7.2-16.2,16.2
			c0,8.9,7.2,16.2,16.2,16.2c8.9,0,16.2-7.2,16.2-16.2C194.5,16.8,187.3,9.6,178.4,9.6 M178.4,35.4c-5.3,0-9.6-4.3-9.6-9.6
			c0-5.3,4.3-9.6,9.6-9.6c5.3,0,9.6,4.3,9.6,9.6C188,31.1,183.7,35.4,178.4,35.4" fill="#FFF"/>
		<path class="st0" d="M47.3,40L56,53.4h0.3V37.6h34.3c-5.4-17.4-21.6-30-40.8-30c-19.2,0-35.4,12.6-40.8,30h34.1
			C45.2,37.6,46.3,38.2,47.3,40 M92,43.8h-9.4v25.3h-8.5V43.8h-9.7v25.3h-5.7c-2.1,0-3.1-0.6-4.2-2.3l-11-16.5l-0.2,0v18.8H35V43.8
			h-9.7v25.3h-8.7V43.8H7.5C7.2,46,7,48.2,7,50.4C7,74,26.2,93.1,49.8,93.1S92.5,74,92.5,50.4C92.5,48.2,92.4,46,92,43.8" fill="#FF28FF"/>
	</g>
	<g>
		<path class="st0" d="M105.7,55.9v37.2h173.8V55.9H105.7z M123.5,78.2h-4.2v8.8h-4.5V63.7h8.7c4.6,0,7.6,3.1,7.6,7.2
			C131.1,75.2,128.1,78.2,123.5,78.2z M146.9,86.9l-4.6-9H140v9h-4.6V63.7h9.1c4.5,0,7.4,3.1,7.4,7.2c0,3.2-1.9,5.7-5,6.6l5,9.5
			H146.9z M171.3,67.9h-10v5.3h9.1v4h-9.1v5.4h10v4.3h-14.6V63.7h14.6V67.9z M202.6,86.9h-4.5V70.6l-6.7,16.3h-3.8L181,70.8v16.2
			h-4.3V63.7h6l7,16.8l6.8-16.8h6.2V86.9z M213.3,86.9h-4.6V63.7h4.6V86.9z M237.1,78.7c0,5.7-4,8.8-9,8.8c-5,0-8.9-3-8.9-8.8v-15
			h4.5v14.7c0,3.1,1.7,4.7,4.4,4.7c2.8,0,4.4-1.6,4.4-4.7V63.7h4.5V78.7z M268.9,86.9h-4.5V70.6l-6.7,16.3H254l-6.7-16.2v16.2H243
			V63.7h6l7,16.8l6.8-16.8h6.2V86.9z" fill="#FFF"/>
		<path class="st0" d="M143.6,67.6H140v6.5h3.7c2.3,0,3.6-1.3,3.6-3.2C147.3,68.9,145.9,67.6,143.6,67.6z" fill="#FFF"/>
		<path class="st0" d="M122.9,67.6h-3.6v6.7h3.6c2.3,0,3.6-1.3,3.6-3.3C126.6,68.9,125.2,67.6,122.9,67.6z" fill="#FFF"/>
	</g>
</g>
</svg>
